<mxfile host="app.diagrams.net" modified="2024-03-15T11:48:23.077Z" agent="Mozilla/5.0 (Windows NT 10.0; Win64; x64) AppleWebKit/537.36 (KHTML, like Gecko) Chrome/122.0.0.0 Safari/537.36" version="24.0.7" etag="Gc9FyfZDo3IACej_W7vr" type="github">
  <diagram name="第 1 页" id="IeBTmGYAm61Q2t79ltW9">
    <mxGraphModel>
      <root>
        <mxCell id="0" />
        <mxCell id="1" parent="0" />
      </root>
    </mxGraphModel>
  </diagram>
</mxfile>
